<svg width="827" height="121" viewBox="0 0 827 121" fill="none" xmlns="http://www.w3.org/2000/svg">
<path d="M0 94.1364V1.04546H8.5V43.7273H61.3182V1.04546H69.8182V94.1364H61.3182V51.3636H8.5V94.1364H0Z" fill="white"/>
<path d="M106.965 95.5909C100.45 95.5909 94.8139 94.0758 90.0564 91.0455C85.2988 87.9849 81.617 83.7576 79.0109 78.3636C76.4352 72.9394 75.1473 66.697 75.1473 59.6364C75.1473 52.6061 76.4352 46.3636 79.0109 40.9091C81.617 35.4243 85.2079 31.1364 89.7836 28.0455C94.3897 24.9243 99.7079 23.3636 105.738 23.3636C109.526 23.3636 113.178 24.0606 116.693 25.4546C120.208 26.8182 123.359 28.9243 126.147 31.7727C128.965 34.5909 131.193 38.1515 132.829 42.4546C134.465 46.7273 135.284 51.7879 135.284 57.6364V61.6364H80.7382V54.5H127.011C127.011 50.0152 126.102 45.9849 124.284 42.4091C122.496 38.803 119.996 35.9546 116.784 33.8636C113.602 31.7727 109.92 30.7273 105.738 30.7273C101.314 30.7273 97.42 31.9091 94.0564 34.2727C90.6927 36.6364 88.0564 39.7576 86.1473 43.6364C84.2685 47.5152 83.3139 51.7576 83.2836 56.3636V60.6364C83.2836 66.1818 84.2382 71.0303 86.1473 75.1818C88.0867 79.303 90.8291 82.5 94.3745 84.7727C97.92 87.0455 102.117 88.1818 106.965 88.1818C110.268 88.1818 113.162 87.6667 115.647 86.6364C118.162 85.6061 120.268 84.2273 121.965 82.5C123.693 80.7424 124.996 78.8182 125.875 76.7273L133.556 79.2273C132.496 82.1667 130.753 84.8788 128.329 87.3636C125.935 89.8485 122.935 91.8485 119.329 93.3636C115.753 94.8485 111.632 95.5909 106.965 95.5909Z" fill="white"/>
<path d="M142.545 120.318C140.938 120.318 139.438 120.167 138.045 119.864C136.651 119.561 135.545 119.227 134.726 118.864L136.908 111.727C139.666 112.576 142.12 112.879 144.272 112.636C146.423 112.424 148.332 111.455 149.999 109.727C151.666 108.03 153.151 105.424 154.454 101.909L156.999 94.8182L131.317 24.3182H140.09L160.817 83.4546H161.454L182.181 24.3182H190.954L161.408 105.182C160.166 108.545 158.635 111.348 156.817 113.591C154.999 115.864 152.893 117.545 150.499 118.636C148.135 119.758 145.484 120.318 142.545 120.318Z" fill="white"/>
<path d="M201.783 81.4091L200.965 86.2727C200.449 89.5455 199.722 93.1515 198.783 97.0909C197.843 101.03 196.874 104.773 195.874 108.318C194.874 111.864 194.01 114.712 193.283 116.864H187.055C187.449 114.803 187.949 112.182 188.555 109C189.192 105.818 189.843 102.288 190.51 98.4091C191.177 94.5606 191.783 90.5909 192.328 86.5L192.965 81.4091H201.783Z" fill="white"/>
<path d="M258.543 24.3182V31.3636H225.225V24.3182H258.543ZM235.634 7.59092H243.77V75.9091C243.77 78.8182 244.27 81.1061 245.27 82.7727C246.27 84.4091 247.573 85.5758 249.18 86.2727C250.786 86.9394 252.498 87.2727 254.316 87.2727C255.377 87.2727 256.286 87.2121 257.043 87.0909C257.801 86.9394 258.467 86.7879 259.043 86.6364L260.77 93.9546C259.983 94.2576 259.013 94.5303 257.861 94.7727C256.71 95.0455 255.286 95.1818 253.589 95.1818C250.619 95.1818 247.755 94.5303 244.998 93.2273C242.27 91.9243 240.028 89.9849 238.27 87.4091C236.513 84.8333 235.634 81.6364 235.634 77.8182V7.59092Z" fill="white"/>
<path d="M272.429 50.5V94.1364H264.338V1.04546H272.429V35.2727H273.156C274.793 31.6667 277.323 28.7879 280.747 26.6364C284.202 24.4849 288.565 23.4091 293.838 23.4091C298.565 23.4091 302.717 24.3788 306.293 26.3182C309.868 28.2576 312.656 31.1212 314.656 34.9091C316.656 38.697 317.656 43.3636 317.656 48.9091V94.1364H309.52V49.4091C309.52 43.6515 307.914 39.1212 304.702 35.8182C301.52 32.4849 297.217 30.8182 291.793 30.8182C288.065 30.8182 284.747 31.6061 281.838 33.1818C278.929 34.7576 276.626 37.0303 274.929 40C273.262 42.9394 272.429 46.4394 272.429 50.5Z" fill="white"/>
<path d="M324.974 94.1364V24.3182H333.11V94.1364H324.974ZM329.11 12.3182C327.444 12.3182 326.02 11.7576 324.838 10.6364C323.656 9.48486 323.065 8.10607 323.065 6.50001C323.065 4.89395 323.656 3.53031 324.838 2.4091C326.02 1.25758 327.444 0.681824 329.11 0.681824C330.777 0.681824 332.201 1.25758 333.383 2.4091C334.565 3.53031 335.156 4.89395 335.156 6.50001C335.156 8.10607 334.565 9.48486 333.383 10.6364C332.201 11.7576 330.777 12.3182 329.11 12.3182Z" fill="white"/>
<path d="M387.337 39.6364L379.928 41.7273C379.201 39.6364 378.171 37.7424 376.837 36.0455C375.504 34.3485 373.762 33 371.61 32C369.489 31 366.852 30.5 363.701 30.5C358.974 30.5 355.095 31.6212 352.065 33.8636C349.034 36.1061 347.519 39 347.519 42.5455C347.519 45.5455 348.549 47.9849 350.61 49.8636C352.701 51.7121 355.913 53.1818 360.246 54.2727L370.792 56.8636C376.64 58.2879 381.019 60.5455 383.928 63.6364C386.868 66.7273 388.337 70.6061 388.337 75.2727C388.337 79.2121 387.246 82.7121 385.065 85.7727C382.883 88.8333 379.837 91.2424 375.928 93C372.049 94.7273 367.549 95.5909 362.428 95.5909C355.61 95.5909 349.989 94.0606 345.565 91C341.14 87.9091 338.307 83.4546 337.065 77.6364L344.837 75.7273C345.837 79.8788 347.792 83.0152 350.701 85.1364C353.64 87.2576 357.504 88.3182 362.292 88.3182C367.655 88.3182 371.943 87.1212 375.155 84.7273C378.368 82.303 379.974 79.2727 379.974 75.6364C379.974 72.8182 379.034 70.4546 377.155 68.5455C375.277 66.6061 372.428 65.1818 368.61 64.2727L357.201 61.5455C351.14 60.0909 346.655 57.7879 343.746 54.6364C340.837 51.4849 339.383 47.5758 339.383 42.9091C339.383 39.0606 340.428 35.6818 342.519 32.7727C344.61 29.8333 347.489 27.5303 351.155 25.8636C354.822 24.197 359.004 23.3636 363.701 23.3636C370.095 23.3636 375.201 24.8182 379.019 27.7273C382.868 30.6061 385.64 34.5758 387.337 39.6364Z" fill="white"/>
<path d="M413.984 94.1364V24.3182H422.12V94.1364H413.984ZM418.12 12.3182C416.454 12.3182 415.03 11.7576 413.848 10.6364C412.666 9.48486 412.075 8.10607 412.075 6.50001C412.075 4.89395 412.666 3.53031 413.848 2.4091C415.03 1.25758 416.454 0.681824 418.12 0.681824C419.787 0.681824 421.211 1.25758 422.393 2.4091C423.575 3.53031 424.166 4.89395 424.166 6.50001C424.166 8.10607 423.575 9.48486 422.393 10.6364C421.211 11.7576 419.787 12.3182 418.12 12.3182Z" fill="white"/>
<path d="M476.347 39.6364L468.938 41.7273C468.211 39.6364 467.181 37.7424 465.847 36.0455C464.514 34.3485 462.772 33 460.62 32C458.499 31 455.862 30.5 452.711 30.5C447.984 30.5 444.105 31.6212 441.075 33.8636C438.044 36.1061 436.529 39 436.529 42.5455C436.529 45.5455 437.559 47.9849 439.62 49.8636C441.711 51.7121 444.923 53.1818 449.256 54.2727L459.802 56.8636C465.65 58.2879 470.029 60.5455 472.938 63.6364C475.878 66.7273 477.347 70.6061 477.347 75.2727C477.347 79.2121 476.256 82.7121 474.075 85.7727C471.893 88.8333 468.847 91.2424 464.938 93C461.059 94.7273 456.559 95.5909 451.438 95.5909C444.62 95.5909 438.999 94.0606 434.575 91C430.15 87.9091 427.317 83.4546 426.075 77.6364L433.847 75.7273C434.847 79.8788 436.802 83.0152 439.711 85.1364C442.65 87.2576 446.514 88.3182 451.302 88.3182C456.665 88.3182 460.953 87.1212 464.165 84.7273C467.378 82.303 468.984 79.2727 468.984 75.6364C468.984 72.8182 468.044 70.4546 466.165 68.5455C464.287 66.6061 461.438 65.1818 457.62 64.2727L446.211 61.5455C440.15 60.0909 435.665 57.7879 432.756 54.6364C429.847 51.4849 428.393 47.5758 428.393 42.9091C428.393 39.0606 429.438 35.6818 431.529 32.7727C433.62 29.8333 436.499 27.5303 440.165 25.8636C443.832 24.197 448.014 23.3636 452.711 23.3636C459.105 23.3636 464.211 24.8182 468.029 27.7273C471.878 30.6061 474.65 34.5758 476.347 39.6364Z" fill="white"/>
<path d="M504.585 94.1364V1.04546H535.994C542.055 1.04546 547.1 2.10607 551.13 4.22728C555.191 6.3485 558.236 9.24244 560.267 12.9091C562.297 16.5758 563.312 20.7424 563.312 25.4091C563.312 29.2879 562.661 32.6061 561.358 35.3636C560.055 38.1212 558.282 40.3485 556.04 42.0455C553.797 43.7424 551.297 44.9697 548.54 45.7273V46.4546C551.54 46.6667 554.449 47.7273 557.267 49.6364C560.085 51.5152 562.403 54.1515 564.221 57.5455C566.04 60.9394 566.949 65 566.949 69.7273C566.949 74.4243 565.903 78.6212 563.812 82.3182C561.721 85.9849 558.509 88.8788 554.176 91C549.873 93.0909 544.388 94.1364 537.721 94.1364H504.585ZM513.085 86.5H537.721C544.903 86.5 550.206 84.9091 553.63 81.7273C557.085 78.5455 558.812 74.5455 558.812 69.7273C558.812 66.1818 557.949 62.9697 556.221 60.0909C554.524 57.1818 552.115 54.8788 548.994 53.1818C545.903 51.4849 542.267 50.6364 538.085 50.6364H513.085V86.5ZM513.085 43.0909H536.767C540.433 43.0909 543.646 42.3333 546.403 40.8182C549.161 39.303 551.312 37.2121 552.858 34.5455C554.403 31.8788 555.176 28.8333 555.176 25.4091C555.176 20.4697 553.57 16.4546 550.358 13.3636C547.146 10.2424 542.358 8.68182 535.994 8.68182H513.085V43.0909Z" fill="white"/>
<path d="M591.198 95.7273C586.986 95.7273 583.138 94.9091 579.653 93.2727C576.168 91.6061 573.395 89.2121 571.335 86.0909C569.274 82.9394 568.244 79.1212 568.244 74.6364C568.244 71.1818 568.895 68.2727 570.198 65.9091C571.501 63.5455 573.35 61.6061 575.744 60.0909C578.138 58.5758 580.971 57.3788 584.244 56.5C587.516 55.6212 591.122 54.9394 595.062 54.4546C598.971 53.9697 602.274 53.5455 604.971 53.1818C607.698 52.8182 609.774 52.2424 611.198 51.4546C612.622 50.6667 613.335 49.394 613.335 47.6364V46C613.335 41.2424 611.91 37.5 609.062 34.7727C606.244 32.0152 602.183 30.6364 596.88 30.6364C591.85 30.6364 587.744 31.7424 584.562 33.9546C581.41 36.1667 579.198 38.7727 577.925 41.7727L570.244 39C571.819 35.1818 574.001 32.1364 576.789 29.8636C579.577 27.5606 582.698 25.9091 586.153 24.9091C589.607 23.8788 593.107 23.3636 596.653 23.3636C599.319 23.3636 602.092 23.7121 604.971 24.4091C607.88 25.1061 610.577 26.3182 613.062 28.0455C615.547 29.7424 617.562 32.1212 619.107 35.1818C620.653 38.2121 621.425 42.0606 621.425 46.7273V94.1364H613.335V83.0909H612.835C611.865 85.1515 610.425 87.1515 608.516 89.0909C606.607 91.0303 604.213 92.6212 601.335 93.8636C598.456 95.1061 595.077 95.7273 591.198 95.7273ZM592.289 88.3182C596.592 88.3182 600.319 87.3636 603.471 85.4546C606.622 83.5455 609.047 81.0152 610.744 77.8636C612.471 74.6818 613.335 71.1818 613.335 67.3636V57.2727C612.728 57.8485 611.713 58.3636 610.289 58.8182C608.895 59.2727 607.274 59.6818 605.425 60.0455C603.607 60.3788 601.789 60.6667 599.971 60.9091C598.153 61.1515 596.516 61.3636 595.062 61.5455C591.122 62.0303 587.759 62.7879 584.971 63.8182C582.183 64.8485 580.047 66.2727 578.562 68.0909C577.077 69.8788 576.335 72.1818 576.335 75C576.335 79.2424 577.85 82.5303 580.88 84.8636C583.91 87.1667 587.713 88.3182 592.289 88.3182Z" fill="white"/>
<path d="M675.777 39.6364L668.368 41.7273C667.641 39.6364 666.611 37.7424 665.277 36.0455C663.944 34.3485 662.202 33 660.05 32C657.929 31 655.292 30.5 652.141 30.5C647.414 30.5 643.535 31.6212 640.505 33.8636C637.474 36.1061 635.959 39 635.959 42.5455C635.959 45.5455 636.989 47.9849 639.05 49.8636C641.141 51.7121 644.353 53.1818 648.686 54.2727L659.232 56.8636C665.08 58.2879 669.459 60.5455 672.368 63.6364C675.308 66.7273 676.777 70.6061 676.777 75.2727C676.777 79.2121 675.686 82.7121 673.505 85.7727C671.323 88.8333 668.277 91.2424 664.368 93C660.489 94.7273 655.989 95.5909 650.868 95.5909C644.05 95.5909 638.429 94.0606 634.005 91C629.58 87.9091 626.747 83.4546 625.505 77.6364L633.277 75.7273C634.277 79.8788 636.232 83.0152 639.141 85.1364C642.08 87.2576 645.944 88.3182 650.732 88.3182C656.095 88.3182 660.383 87.1212 663.595 84.7273C666.808 82.303 668.414 79.2727 668.414 75.6364C668.414 72.8182 667.474 70.4546 665.595 68.5455C663.717 66.6061 660.868 65.1818 657.05 64.2727L645.641 61.5455C639.58 60.0909 635.095 57.7879 632.186 54.6364C629.277 51.4849 627.823 47.5758 627.823 42.9091C627.823 39.0606 628.868 35.6818 630.959 32.7727C633.05 29.8333 635.929 27.5303 639.595 25.8636C643.262 24.197 647.444 23.3636 652.141 23.3636C658.535 23.3636 663.641 24.8182 667.459 27.7273C671.308 30.6061 674.08 34.5758 675.777 39.6364Z" fill="white"/>
<path d="M707.913 24.3182V31.3636H674.595V24.3182H707.913ZM685.004 7.59092H693.14V75.9091C693.14 78.8182 693.64 81.1061 694.64 82.7727C695.64 84.4091 696.943 85.5758 698.549 86.2727C700.156 86.9394 701.868 87.2727 703.686 87.2727C704.746 87.2727 705.656 87.2121 706.413 87.0909C707.171 86.9394 707.837 86.7879 708.413 86.6364L710.14 93.9546C709.353 94.2576 708.383 94.5303 707.231 94.7727C706.08 95.0455 704.656 95.1818 702.959 95.1818C699.989 95.1818 697.125 94.5303 694.368 93.2273C691.64 91.9243 689.398 89.9849 687.64 87.4091C685.883 84.8333 685.004 81.6364 685.004 77.8182V7.59092Z" fill="white"/>
<path d="M738.595 95.5909C732.564 95.5909 727.231 94.0606 722.595 91C717.988 87.9394 714.382 83.7121 711.776 78.3182C709.17 72.8939 707.867 66.6364 707.867 59.5455C707.867 52.3939 709.17 46.1061 711.776 40.6818C714.382 35.2273 717.988 30.9849 722.595 27.9546C727.231 24.8939 732.564 23.3636 738.595 23.3636C744.625 23.3636 749.943 24.8939 754.549 27.9546C759.155 31.0152 762.761 35.2576 765.367 40.6818C768.004 46.1061 769.322 52.3939 769.322 59.5455C769.322 66.6364 768.019 72.8939 765.413 78.3182C762.807 83.7121 759.185 87.9394 754.549 91C749.943 94.0606 744.625 95.5909 738.595 95.5909ZM738.595 88.1818C743.443 88.1818 747.549 86.8788 750.913 84.2727C754.276 81.6667 756.822 78.197 758.549 73.8636C760.307 69.5303 761.185 64.7576 761.185 59.5455C761.185 54.3333 760.307 49.5455 758.549 45.1818C756.822 40.8182 754.276 37.3182 750.913 34.6818C747.549 32.0455 743.443 30.7273 738.595 30.7273C733.776 30.7273 729.67 32.0455 726.276 34.6818C722.913 37.3182 720.352 40.8182 718.595 45.1818C716.867 49.5455 716.004 54.3333 716.004 59.5455C716.004 64.7576 716.867 69.5303 718.595 73.8636C720.352 78.197 722.913 81.6667 726.276 84.2727C729.64 86.8788 733.746 88.1818 738.595 88.1818Z" fill="white"/>
<path d="M780.367 67.7727L780.276 57.1818H782.094L814.821 24.3182H825.049L792.73 56.6818L792.003 56.8182L780.367 67.7727ZM773.003 94.1364V1.04546H781.094V94.1364H773.003ZM816.503 94.1364L788.14 58.2727L793.958 52.6818L826.867 94.1364H816.503Z" fill="white"/>
</svg>
