<svg width="181" height="182" viewBox="0 0 181 182" fill="none" xmlns="http://www.w3.org/2000/svg">
<g clip-path="url(#clip0_1_17)">
<path d="M90.4978 0.318176C40.5997 0.318176 0 40.9178 0 90.816C0 140.714 40.5997 181.314 90.4978 181.314C140.396 181.314 180.996 140.714 180.996 90.816C180.996 40.9178 140.4 0.318176 90.4978 0.318176ZM90.4978 172.652C45.3746 172.652 8.66588 135.944 8.66588 90.8203C8.66588 45.6971 45.3746 8.98406 90.4978 8.98406C135.621 8.98406 172.33 45.6927 172.33 90.816C172.33 135.939 135.621 172.648 90.4978 172.648V172.652Z" fill="white"/>
<path d="M93.4486 28.5603L87.5471 34.9037L142.996 86.4831H17.6264V95.149H144.629L96.5596 151.525L103.15 157.145L160.007 90.4694L93.4486 28.5603Z" fill="white"/>
</g>
<defs>
<clipPath id="clip0_1_17">
<rect width="181" height="181" fill="white" transform="translate(0 0.318176)"/>
</clipPath>
</defs>
</svg>
