<svg width="181" height="181" viewBox="0 0 181 181" fill="none" xmlns="http://www.w3.org/2000/svg">
<g clip-path="url(#clip0_1_17)">
<path d="M90.4978 0C40.5997 0 0 40.5997 0 90.4978C0 140.396 40.5997 180.996 90.4978 180.996C140.396 180.996 180.996 140.396 180.996 90.4978C180.996 40.5997 140.4 0 90.4978 0ZM90.4978 172.334C45.3746 172.334 8.66588 135.625 8.66588 90.5022C8.66588 45.3789 45.3746 8.66588 90.4978 8.66588C135.621 8.66588 172.33 45.3746 172.33 90.4978C172.33 135.621 135.621 172.33 90.4978 172.33V172.334Z" fill="white"/>
<path d="M93.4486 28.2421L87.5471 34.5856L142.996 86.1649H17.6264V94.8308H144.629L96.5596 151.207L103.15 156.827L160.007 90.1512L93.4486 28.2421Z" fill="white"/>
</g>
<defs>
<clipPath id="clip0_1_17">
<rect width="181" height="181" fill="white"/>
</clipPath>
</defs>
</svg>
